{
  "accessors": [
    {
      "bufferView": 2,
      "componentType": 5126,
      "count": 10086,
      "max": [
        0.736270010471344,
        0.8304299712181091,
        0.8954700231552124
      ],
      "min": [
        -0.7362899780273438,
        -1.0041600465774536,
        -1.2813700437545776
      ],
      "type": "VEC3"
    },
    {
      "bufferView": 2,
      "byteOffset": 121032,
      "componentType": 5126,
      "count": 10086,
      "max": [
        0.999966561794281,
        0.9999114274978638,
        0.9997019171714783
      ],
      "min": [
        -0.9999764561653137,
        -0.9999719262123108,
        -0.9997228980064392
      ],
      "type": "VEC3"
    },
    {
      "bufferView": 1,
      "componentType": 5126,
      "count": 10086,
      "max": [
        0.9895099997520447,
        0.9895700216293335
      ],
      "min": [
        0.010490000247955322,
        0.01042999979108572
      ],
      "type": "VEC2"
    },
    {
      "bufferView": 0,
      "componentType": 5125,
      "count": 48612,
      "type": "SCALAR"
    },
    {
      "bufferView": 2,
      "byteOffset": 242064,
      "componentType": 5126,
      "count": 1186,
      "max": [
        0.5324699878692627,
        -0.34606000781059265,
        -0.08754999935626984
      ],
      "min": [
        -0.5321999788284302,
        -0.7775099873542786,
        -0.5184599757194519
      ],
      "type": "VEC3"
    },
    {
      "bufferView": 2,
      "byteOffset": 256296,
      "componentType": 5126,
      "count": 1186,
      "max": [
        0.9976680874824524,
        0.9984834790229797,
        0.9969613552093506
      ],
      "min": [
        -0.9976680874824524,
        -0.9984834790229797,
        -0.9969613552093506
      ],
      "type": "VEC3"
    },
    {
      "bufferView": 1,
      "byteOffset": 80688,
      "componentType": 5126,
      "count": 1186,
      "max": [
        0.9700400233268738,
        0.961359977722168
      ],
      "min": [
        0.02996000088751316,
        0.03863999992609024
      ],
      "type": "VEC2"
    },
    {
      "bufferView": 0,
      "byteOffset": 194448,
      "componentType": 5125,
      "count": 5760,
      "type": "SCALAR"
    },
    {
      "bufferView": 2,
      "byteOffset": 270528,
      "componentType": 5126,
      "count": 19629,
      "max": [
        1.3698300123214722,
        0.569159984588623,
        0.6880199909210205
      ],
      "min": [
        -1.3705699443817139,
        -1.110069990158081,
        -1.2497999668121338
      ],
      "type": "VEC3"
    },
    {
      "bufferView": 2,
      "byteOffset": 506076,
      "componentType": 5126,
      "count": 19629,
      "max": [
        0.999971330165863,
        0.9999247789382935,
        0.9999614357948303
      ],
      "min": [
        -0.9999998211860657,
        -0.9997825026512146,
        -1.0
      ],
      "type": "VEC3"
    },
    {
      "bufferView": 1,
      "byteOffset": 90176,
      "componentType": 5126,
      "count": 19629,
      "max": [
        0.9926999807357788,
        0.9926999807357788
      ],
      "min": [
        0.007300000172108412,
        0.007300000172108412
      ],
      "type": "VEC2"
    },
    {
      "bufferView": 0,
      "byteOffset": 217488,
      "componentType": 5125,
      "count": 82212,
      "type": "SCALAR"
    },
    {
      "bufferView": 2,
      "byteOffset": 741624,
      "componentType": 5126,
      "count": 10354,
      "max": [
        0.7689300179481506,
        0.16220000386238098,
        0.043790001422166824
      ],
      "min": [
        -0.7689300179481506,
        -0.0782100036740303,
        -0.40231001377105713
      ],
      "type": "VEC3"
    },
    {
      "bufferView": 2,
      "byteOffset": 865872,
      "componentType": 5126,
      "count": 10354,
      "max": [
        0.9999990463256836,
        0.9983732104301453,
        0.9994688034057617
      ],
      "min": [
        -0.9997475147247314,
        -0.9999027252197266,
        -0.9971094131469727
      ],
      "type": "VEC3"
    },
    {
      "bufferView": 1,
      "byteOffset": 247208,
      "componentType": 5126,
      "count": 10354,
      "max": [
        0.977180004119873,
        0.9770200252532959
      ],
      "min": [
        0.02281999960541725,
        0.02298000082373619
      ],
      "type": "VEC2"
    },
    {
      "bufferView": 0,
      "byteOffset": 546336,
      "componentType": 5125,
      "count": 10356,
      "type": "SCALAR"
    },
    {
      "bufferView": 2,
      "byteOffset": 990120,
      "componentType": 5126,
      "count": 65533,
      "max": [
        1.2991199493408203,
        1.44268000125885,
        1.0393400192260742
      ],
      "min": [
        -1.2999500036239624,
        -1.1705399751663208,
        -2.5629498958587646
      ],
      "type": "VEC3"
    },
    {
      "bufferView": 2,
      "byteOffset": 1776516,
      "componentType": 5126,
      "count": 65533,
      "max": [
        0.9999179840087891,
        0.9999933242797852,
        0.9999054670333862
      ],
      "min": [
        -0.9999145269393921,
        -0.9999814033508301,
        -0.9997217655181885
      ],
      "type": "VEC3"
    },
    {
      "bufferView": 0,
      "byteOffset": 587760,
      "componentType": 5125,
      "count": 165279,
      "type": "SCALAR"
    },
    {
      "bufferView": 2,
      "byteOffset": 2562912,
      "componentType": 5126,
      "count": 24024,
      "max": [
        1.1269400119781494,
        0.8494499921798706,
        0.6940000057220459
      ],
      "min": [
        -1.1445800065994263,
        -0.8574600219726563,
        -1.53548002243042
      ],
      "type": "VEC3"
    },
    {
      "bufferView": 2,
      "byteOffset": 2851200,
      "componentType": 5126,
      "count": 24024,
      "max": [
        0.9999984502792358,
        0.9999441504478455,
        0.9992384314537048
      ],
      "min": [
        -0.9999416470527649,
        -0.9999703764915466,
        -0.9957489967346191
      ],
      "type": "VEC3"
    },
    {
      "bufferView": 0,
      "byteOffset": 1248876,
      "componentType": 5125,
      "count": 90561,
      "type": "SCALAR"
    },
    {
      "bufferView": 2,
      "byteOffset": 3139488,
      "componentType": 5126,
      "count": 6220,
      "max": [
        -0.5100299715995789,
        14.877650260925293,
        4.478489875793457
      ],
      "min": [
        -24.585960388183594,
        -3.560650110244751,
        -4.1758198738098145
      ],
      "type": "VEC3"
    },
    {
      "bufferView": 2,
      "byteOffset": 3214128,
      "componentType": 5126,
      "count": 6220,
      "max": [
        0.9989538192749023,
        0.9938803315162659,
        0.9978446960449219
      ],
      "min": [
        -0.9989538192749023,
        -0.9936193823814392,
        -0.9980899095535278
      ],
      "type": "VEC3"
    },
    {
      "bufferView": 0,
      "byteOffset": 1611120,
      "componentType": 5125,
      "count": 20988,
      "type": "SCALAR"
    }
  ],
  "asset": {
    "extras": {
      "author": "nnhhaadd (https://sketchfab.com/nnhhaadd)",
      "license": "CC-BY-4.0 (http://creativecommons.org/licenses/by/4.0/)",
      "source": "https://sketchfab.com/3d-models/girl-with-glasses-4c865c5df17741f7be87392d37fa31eb",
      "title": "Girl with glasses"
    },
    "generator": "Sketchfab-12.68.0",
    "version": "2.0"
  },
  "bufferViews": [
    {
      "buffer": 0,
      "byteLength": 1695072,
      "name": "floatBufferViews",
      "target": 34963
    },
    {
      "buffer": 0,
      "byteLength": 330040,
      "byteOffset": 1695072,
      "byteStride": 8,
      "name": "floatBufferViews",
      "target": 34962
    },
    {
      "buffer": 0,
      "byteLength": 3288768,
      "byteOffset": 2025112,
      "byteStride": 12,
      "name": "floatBufferViews",
      "target": 34962
    }
  ],
  "buffers": [
    {
      "byteLength": 5313880,
      "uri": "scene.bin"
    }
  ],
  "images": [
    {
      "uri": "textures/Material.005_baseColor.png"
    },
    {
      "uri": "textures/Material.004_baseColor.png"
    },
    {
      "uri": "textures/Material.002_baseColor.png"
    },
    {
      "uri": "textures/Material.003_baseColor.png"
    }
  ],
  "materials": [
    {
      "doubleSided": true,
      "name": "Material",
      "pbrMetallicRoughness": {
        "baseColorFactor": [
          0.0,
          0.0,
          0.0,
          1.0
        ],
        "metallicFactor": 0.7943978658536586,
        "roughnessFactor": 0.08708079268292684
      }
    },
    {
      "doubleSided": true,
      "name": "Material.001",
      "pbrMetallicRoughness": {
        "baseColorFactor": [
          0.007726100576177697,
          0.007726100576177697,
          0.007726100576177697,
          1.0
        ],
        "metallicFactor": 0.0
      }
    },
    {
      "doubleSided": true,
      "emissiveFactor": [
        0.2,
        0.0,
        0.0
      ],
      "name": "Material.005",
      "pbrMetallicRoughness": {
        "baseColorTexture": {
          "index": 0
        },
        "metallicFactor": 0.0
      }
    },
    {
      "doubleSided": true,
      "name": "Material.004",
      "pbrMetallicRoughness": {
        "baseColorTexture": {
          "index": 1
        },
        "metallicFactor": 0.0
      }
    },
    {
      "doubleSided": true,
      "name": "Material.002",
      "pbrMetallicRoughness": {
        "baseColorTexture": {
          "index": 2
        },
        "metallicFactor": 0.0,
        "roughnessFactor": 0.0
      }
    },
    {
      "doubleSided": true,
      "emissiveFactor": [
        0.1,
        0.0,
        0.0
      ],
      "name": "Material.003",
      "pbrMetallicRoughness": {
        "baseColorTexture": {
          "index": 3
        },
        "metallicFactor": 0.0
      }
    }
  ],
  "meshes": [
    {
      "name": "Cube_0",
      "primitives": [
        {
          "attributes": {
            "NORMAL": 1,
            "POSITION": 0,
            "TEXCOORD_0": 2
          },
          "indices": 3,
          "material": 5,
          "mode": 4
        }
      ]
    },
    {
      "name": "Sphere_0",
      "primitives": [
        {
          "attributes": {
            "NORMAL": 5,
            "POSITION": 4,
            "TEXCOORD_0": 6
          },
          "indices": 7,
          "material": 4,
          "mode": 4
        }
      ]
    },
    {
      "name": "Cylinder_0",
      "primitives": [
        {
          "attributes": {
            "NORMAL": 9,
            "POSITION": 8,
            "TEXCOORD_0": 10
          },
          "indices": 11,
          "material": 3,
          "mode": 4
        }
      ]
    },
    {
      "name": "Sphere.001_0",
      "primitives": [
        {
          "attributes": {
            "NORMAL": 13,
            "POSITION": 12,
            "TEXCOORD_0": 14
          },
          "indices": 15,
          "material": 2,
          "mode": 4
        }
      ]
    },
    {
      "name": "Sphere.002_0",
      "primitives": [
        {
          "attributes": {
            "NORMAL": 17,
            "POSITION": 16
          },
          "indices": 18,
          "material": 1,
          "mode": 4
        }
      ]
    },
    {
      "name": "Sphere.002_0",
      "primitives": [
        {
          "attributes": {
            "NORMAL": 20,
            "POSITION": 19
          },
          "indices": 21,
          "material": 1,
          "mode": 4
        }
      ]
    },
    {
      "name": "NurbsPath.018_0",
      "primitives": [
        {
          "attributes": {
            "NORMAL": 23,
            "POSITION": 22
          },
          "indices": 24,
          "material": 0,
          "mode": 4
        }
      ]
    }
  ],
  "nodes": [
    {
      "children": [
        1
      ],
      "matrix": [
        1.0,
        0.0,
        0.0,
        0.0,
        0.0,
        2.220446049250313e-16,
        -1.0,
        0.0,
        0.0,
        1.0,
        2.220446049250313e-16,
        0.0,
        0.0,
        0.0,
        0.0,
        1.0
      ],
      "name": "Sketchfab_model"
    },
    {
      "children": [
        2,
        4,
        6,
        8,
        10,
        13
      ],
      "name": "Root"
    },
    {
      "children": [
        3
      ],
      "matrix": [
        0.9995099999999999,
        0.0010500000000000002,
        0.031150000000000008,
        0.0,
        -0.007890000000000003,
        0.9753799999999999,
        0.22038000000000002,
        0.0,
        -0.030150000000000007,
        -0.22052000000000002,
        0.97492,
        0.0,
        0.00018000000000000007,
        0.0005600000000000002,
        0.3240100000000001,
        1.0
      ],
      "name": "Cube"
    },
    {
      "mesh": 0,
      "name": "Cube_0"
    },
    {
      "children": [
        5
      ],
      "matrix": [
        0.9995099999999999,
        0.0010500000000000002,
        0.031150000000000008,
        0.0,
        -0.007890000000000003,
        0.9753799999999999,
        0.22038000000000002,
        0.0,
        -0.030150000000000007,
        -0.22052000000000002,
        0.97492,
        0.0,
        -0.00018000000000000007,
        0.045120000000000014,
        0.3340700000000001,
        1.0
      ],
      "name": "Sphere"
    },
    {
      "mesh": 1,
      "name": "Sphere_0"
    },
    {
      "children": [
        7
      ],
      "matrix": [
        1.0,
        0.0,
        0.0,
        0.0,
        0.0,
        1.0,
        0.0,
        0.0,
        0.0,
        0.0,
        1.0,
        0.0,
        0.0,
        0.269,
        -0.6662800000000001,
        1.0
      ],
      "name": "Cylinder"
    },
    {
      "mesh": 2,
      "name": "Cylinder_0"
    },
    {
      "children": [
        9
      ],
      "matrix": [
        1.0,
        0.0,
        0.0,
        0.0,
        0.0,
        0.98544,
        0.17003000000000001,
        0.0,
        0.0,
        -0.17003000000000001,
        0.98544,
        0.0,
        0.0,
        0.01853,
        0.06245000000000001,
        1.0
      ],
      "name": "Sphere.001"
    },
    {
      "mesh": 3,
      "name": "Sphere.001_0"
    },
    {
      "children": [
        11,
        12
      ],
      "matrix": [
        0.8970300000000001,
        0.0,
        0.0,
        0.0,
        0.0,
        0.8970300000000001,
        0.0,
        0.0,
        0.0,
        0.0,
        0.8970300000000001,
        0.0,
        0.0,
        0.0,
        0.4651,
        1.0
      ],
      "name": "Sphere.002"
    },
    {
      "mesh": 4,
      "name": "Sphere.002_0"
    },
    {
      "mesh": 5,
      "name": "Sphere.002_0"
    },
    {
      "children": [
        14
      ],
      "matrix": [
        -0.05927000000000001,
        0.0,
        0.0,
        0.0,
        0.0,
        0.05927000000000001,
        0.0,
        0.0,
        0.0,
        0.0,
        0.05927000000000001,
        0.0,
        -0.71647,
        -0.6260800000000001,
        -0.12494000000000001,
        1.0
      ],
      "name": "NurbsPath.018"
    },
    {
      "mesh": 6,
      "name": "NurbsPath.018_0"
    }
  ],
  "samplers": [
    {
      "magFilter": 9729,
      "minFilter": 9987,
      "wrapS": 10497,
      "wrapT": 10497
    }
  ],
  "scene": 0,
  "scenes": [
    {
      "name": "Sketchfab_Scene",
      "nodes": [
        0
      ]
    }
  ],
  "textures": [
    {
      "sampler": 0,
      "source": 0
    },
    {
      "sampler": 0,
      "source": 1
    },
    {
      "sampler": 0,
      "source": 2
    },
    {
      "sampler": 0,
      "source": 3
    }
  ]
}
